# xmcd
#
# Track frame offsets: 
#        150
#        19335
#        36200
#        53720
#        69776
#        90889
#        96488
#        109201
#        129711
#        148460
#        162130
#        183251
#        192268
#        212822
#
# Disc length: 3044 seconds
#
# Revision: 0
# Processed by: cddbd v1.5.1PL2 Copyright (c) Steve Scherf et al.
# Submitted via: ExactAudioCopy v0.95b3
#
DISCID=c60be20e
DTITLE=Petersen, Mark - Lost And Found
DYEAR=2004
DGENRE=Rock: Blues
TTITLE0=Fudge
TTITLE1=Lost And Found
TTITLE2=Sparkles
TTITLE3=Shy
TTITLE4=Blinded
TTITLE5=Bored
TTITLE6=Daydreamer
TTITLE7=Like A Flash
TTITLE8=For A While
TTITLE9=Lookout
TTITLE10=Spooked
TTITLE11=Larry Williams
TTITLE12=Keep Strait
TTITLE13=Millionaire
EXTD=
EXTT0=
EXTT1=
EXTT2=
EXTT3=
EXTT4=
EXTT5=
EXTT6=
EXTT7=
EXTT8=
EXTT9=
EXTT10=
EXTT11=
EXTT12=
EXTT13=
PLAYORDER=
